<svg id="Layer_1" enable-background="new 0 0 512 512" height="512" viewBox="0 0 512 512" width="512" xmlns="http://www.w3.org/2000/svg"><path d="m416 352h-320c-26.51 0-48-21.49-48-48v-224c0-26.51 21.49-48 48-48h320c26.51 0 48 21.49 48 48v224c0 26.51-21.49 48-48 48z" fill="#b2b2b2"/><path d="m432 88v208c0 13.25-10.75 24-24 24h-304c-13.25 0-24-10.75-24-24 0-224.126-.349-209.723.77-214.02 2.67-10.34 12.06-17.98 23.23-17.98h304c13.25 0 24 10.75 24 24z" fill="#74f7f9"/><path d="m432 64v208h-144c-108.82 0-198.12-83.56-207.23-190.02 2.67-10.34 12.06-17.98 23.23-17.98z" fill="#8dffff"/><path d="m432 480h-352c-44.183 0-80-35.817-80-80 0-26.436 21.417-48 48-48h416c26.51 0 48 21.49 48 48 0 44.06-35.695 80-80 80z" fill="#999"/><path d="m304 400h-96l-16-48h128z" fill="#aaa"/></svg>